<mxfile host="app.diagrams.net" modified="2023-12-08T21:24:02.044Z" agent="Mozilla/5.0 (Windows NT 10.0; Win64; x64) AppleWebKit/537.36 (KHTML, like Gecko) Chrome/119.0.0.0 Safari/537.36" etag="Ou9vfMfHT_v8A-dJQoZt" version="22.1.7" type="device">
  <diagram name="Page-1" id="5nuNEwp7geA0TZlM_HXr">
    <mxGraphModel dx="1114" dy="602" grid="1" gridSize="10" guides="1" tooltips="1" connect="1" arrows="1" fold="1" page="1" pageScale="1" pageWidth="1169" pageHeight="827" math="0" shadow="0">
      <root>
        <mxCell id="0" />
        <mxCell id="1" parent="0" />
        <mxCell id="f-k78EgDY2mK5R0cUtTM-138" value="" style="rounded=0;whiteSpace=wrap;html=1;fillColor=none;" parent="1" vertex="1">
          <mxGeometry x="40" y="40" width="270" height="150" as="geometry" />
        </mxCell>
        <mxCell id="f-k78EgDY2mK5R0cUtTM-139" value="" style="endArrow=none;html=1;rounded=0;strokeWidth=1;" parent="1" edge="1">
          <mxGeometry width="50" height="50" relative="1" as="geometry">
            <mxPoint x="280" y="70" as="sourcePoint" />
            <mxPoint x="300" y="49.99999999999994" as="targetPoint" />
          </mxGeometry>
        </mxCell>
        <mxCell id="f-k78EgDY2mK5R0cUtTM-140" value="" style="endArrow=none;html=1;rounded=0;strokeWidth=1;" parent="1" edge="1">
          <mxGeometry width="50" height="50" relative="1" as="geometry">
            <mxPoint x="300" y="70" as="sourcePoint" />
            <mxPoint x="280" y="49.99999999999994" as="targetPoint" />
          </mxGeometry>
        </mxCell>
        <mxCell id="KzKOROUcKOEuIQucyDnu-13" value="Solid session" style="text;html=1;strokeColor=none;fillColor=none;align=left;verticalAlign=middle;whiteSpace=wrap;rounded=0;fontColor=#000000;fontStyle=1;fontSize=14;" parent="1" vertex="1">
          <mxGeometry x="50" y="50" width="160" height="20" as="geometry" />
        </mxCell>
        <mxCell id="KzKOROUcKOEuIQucyDnu-14" value="Enter an address of your Solid Pod provider." style="text;html=1;strokeColor=none;fillColor=none;align=left;verticalAlign=middle;whiteSpace=wrap;rounded=0;spacingLeft=2;" parent="1" vertex="1">
          <mxGeometry x="50" y="88.93" width="250" height="21.07" as="geometry" />
        </mxCell>
        <mxCell id="KzKOROUcKOEuIQucyDnu-17" value="Log in" style="rounded=1;whiteSpace=wrap;html=1;fontColor=#000000;fontStyle=0;fillColor=#E6E6E6;" parent="1" vertex="1">
          <mxGeometry x="240" y="161.07" width="60" height="20" as="geometry" />
        </mxCell>
        <mxCell id="KzKOROUcKOEuIQucyDnu-18" value="Discard" style="rounded=1;whiteSpace=wrap;html=1;fontColor=#000000;fontStyle=0;fillColor=#E6E6E6;" parent="1" vertex="1">
          <mxGeometry x="50" y="161.07" width="60" height="20" as="geometry" />
        </mxCell>
        <mxCell id="KzKOROUcKOEuIQucyDnu-19" value="http://..." style="rounded=1;whiteSpace=wrap;html=1;align=left;spacingLeft=2;" parent="1" vertex="1">
          <mxGeometry x="50" y="120.53" width="250" height="19.47" as="geometry" />
        </mxCell>
      </root>
    </mxGraphModel>
  </diagram>
</mxfile>
